<svg id="logo" xmlns="http://www.w3.org/2000/svg" viewBox="0 0 99.21 48.15"><defs><style>.cls-1{fill:#0053a4;}</style></defs><path class="cls-1" d="M22.23,14.23c-3.77,0-7.34,2.15-8,8-.6,5.45,2,8.33,6.23,8.31h5.35l.3-1.45H20.9c-3.81-.09-5.29-2.4-4.86-6.71.47-4.78,3.62-6.62,6-6.62H84.73L85,14.21l-62.81,0Z"/><path class="cls-1" d="M83.39,17.8h-1.6l-.64,3H77.87l.51-2a.64.64,0,0,1,.58-.46h1.7L81,17H78.43a1.67,1.67,0,0,0-1.76,1.13l-.62,2.7H74.67l-.26,1.29h1.47l-1.73,8.26c-.51,1.73-2,2.33-3.61,2.34H42.91L42.66,34H71.37a4.33,4.33,0,0,0,4.3-3.54l1.84-8.38h3.38l-1.08,5.12-.27,1.49c-.23,1.24,1,2,2.15,1.94l.9,0,.27-1.38-.87,0c-.91.06-.86-.6-.73-1.45l1.26-5.7h1.61l.27-1.29H82.79l.6-3Z"/><polygon class="cls-1" points="14.2 34.02 39.46 34.02 39.72 32.7 14.42 32.7 14.19 34 14.2 34.02"/><path class="cls-1" d="M51.93,26.12c.09,2.88,2.23,4.7,5.62,4.63,2.41,0,4.69-1.81,4.4-4.34,0-2.63-3.77-3.27-5.65-4.77A1.84,1.84,0,0,1,56,19c2.31-2,5.57.39,5.33,1.94l1.72-.14c-.21-3.18-2.54-4-5.1-4.08-2.08,0-4.24,1.11-4.33,3.44.31,3.68,3.92,3.57,6.17,5.93.86,1.21-.22,3.07-2.36,3.2S53.52,27.78,53.66,26l-1.73.17Z"/><path class="cls-1" d="M29.25,17.14,26.5,30.49h1.57l1.05-5.11c.4-1.59,1.76-3.53,3.74-3.53,1.36,0,1.4,1.21,1.15,2.26l-1.46,6.38h1.64l1.37-5.94.1-.49a2.47,2.47,0,0,0-2.45-3.3,3.84,3.84,0,0,0-3.39,1.52l1.07-5.14Z"/><path class="cls-1" d="M67.74,30.68h0a4.12,4.12,0,0,1-4.29-4.26A5.72,5.72,0,0,1,69,20.68c3.34,0,4.72,2.74,4.27,5.24a5.85,5.85,0,0,1-5.54,4.76Zm3.64-5c.36-2-.49-3.55-2.35-3.59a2.72,2.72,0,0,0-.64.05,4.17,4.17,0,0,0-3,3.54h0c-.35,2,.71,3.59,2.36,3.59a2.82,2.82,0,0,0,.65-.08A4.42,4.42,0,0,0,71.38,25.67Z"/><path class="cls-1" d="M50.22,25.73c-.43,2.72-2.5,5-4.67,5h0a3.19,3.19,0,0,1-2.71-1.8h0L41.78,34H40.14l2.75-13.21H44.4l-.27,1.37h0A4.4,4.4,0,0,1,47,20.78C49.21,20.78,50.65,23,50.22,25.73Zm-6.84-.07h0c-.3,2,.61,3.57,2,3.57s2.86-1.61,3.17-3.57S48,22.1,46.55,22.1s-2.86,1.61-3.17,3.56Z"/><polygon class="cls-1" points="36.75 30.49 38.37 30.49 40.41 20.81 38.75 20.81 36.75 30.49 36.75 30.49"/><polygon class="cls-1" points="41.15 17.13 39.54 17.13 39.12 19.01 40.76 19.01 41.15 17.13 41.15 17.13"/></svg>