<?xml version="1.0" encoding="utf-8"?>
<!-- Generator: Adobe Illustrator 27.0.1, SVG Export Plug-In . SVG Version: 6.00 Build 0)  -->
<svg version="1.1" id="Laag_1" xmlns="http://www.w3.org/2000/svg" xmlns:xlink="http://www.w3.org/1999/xlink" x="0px" y="0px"
	 viewBox="0 0 482.7 136.4" style="enable-background:new 0 0 482.7 136.4;" xml:space="preserve">
<style type="text/css">
	.st0{fill:none;}
	.st1{fill:#ED6B06;}
	.st2{fill:#6A1D58;}
</style>
<rect y="0" class="st0" width="34" height="34"/>
<rect y="101.9" class="st0" width="34" height="34"/>
<rect x="447.9" y="0" class="st0" width="34" height="34"/>
<rect x="447.9" y="101.9" class="st0" width="34" height="34"/>
<g>
	<g>
		<rect x="266.6" y="51.7" class="st0" width="7.8" height="35"/>
		<g>
			<rect x="371.9" y="34.2" class="st1" width="8.1" height="8.1"/>
			<rect x="411.9" y="34.2" class="st1" width="8.1" height="8.1"/>
			<g>
				<path class="st1" d="M339.9,48.7c2.4-1.2,5-1.8,8-1.8c3.4,0,6.5,0.8,9.3,2.5c2.8,1.7,5,4,6.6,7.1c1.6,3,2.4,6.5,2.4,10.4
					c0,3.9-0.8,7.4-2.4,10.5c-1.6,3.1-3.8,5.5-6.6,7.2c-2.8,1.7-5.9,2.6-9.3,2.6c-3,0-5.6-0.6-7.9-1.8c-2.3-1.2-4.2-2.7-5.7-4.5
					l-0.1,21.1h-8.1l0.1-54.5h8.1v5.7C335.6,51.4,337.5,49.9,339.9,48.7 M356.4,59.8c-1.1-2-2.6-3.5-4.4-4.5c-1.8-1-3.8-1.5-5.8-1.5
					c-2,0-4,0.5-5.8,1.6c-1.8,1-3.3,2.6-4.4,4.5c-1.1,2-1.7,4.3-1.7,7s0.6,5,1.7,7.1c1.1,2,2.6,3.5,4.4,4.6c1.8,1,3.7,1.6,5.8,1.6
					c2.1,0,4-0.5,5.8-1.6c1.8-1.1,3.3-2.6,4.4-4.6c1.1-2,1.7-4.4,1.7-7.1S357.5,61.8,356.4,59.8"/>
				<rect x="371.9" y="47.6" class="st1" width="8.1" height="39.1"/>
				<path class="st1" d="M399.8,48.7c2-1.1,4.3-1.7,7-1.7v8.4h-2.1c-3.2,0-5.6,0.8-7.2,2.4c-1.6,1.6-2.4,4.4-2.4,8.4v20.6H387V47.6
					h8.1v5.7C396.3,51.3,397.8,49.8,399.8,48.7"/>
				<rect x="412.2" y="47.6" class="st1" width="8.1" height="39.1"/>
				<path class="st1" d="M438.7,54.2v21.6c0,1.5,0.3,2.5,1,3.2c0.7,0.6,1.9,1,3.5,1h5v6.7h-6.4c-3.6,0-6.4-0.9-8.4-2.6
					c-1.9-1.7-2.9-4.5-2.9-8.3V54.2h-4.6v-6.6h4.6V37.3h8.2v10.3h9.5v6.6H438.7z"/>
				<polygon class="st1" points="322.7,34.2 312.2,34.2 298.5,53.7 284.9,34.2 274.4,34.2 293.3,61.2 275.4,86.7 286,86.7 
					298.5,68.7 311.1,86.7 321.6,86.7 303.8,61.2 				"/>
			</g>
		</g>
	</g>
	<g>
		<rect x="239.3" y="51.7" class="st0" width="7.8" height="35"/>
		<rect x="247.1" y="51.7" class="st0" width="7.8" height="35"/>
		<rect x="258.8" y="51.7" class="st0" width="7.8" height="35"/>
		<rect x="258.8" y="51.7" class="st0" width="7.8" height="35"/>
		<g>
			<path class="st2" d="M133.4,65.1h-19.2c1.2-4.3,5.1-7.2,9.3-7.2C128.7,57.9,132.1,60.5,133.4,65.1 M114.2,71.7h28.1v-1.8
				c0-4.6-1.1-8.4-3.3-11.5c-3.7-4.9-9.3-8-15.2-8c-4.8,0-9.4,2.1-13,5.8c-3.3,3.5-4.9,7.8-4.9,12.7c0,4.6,1.9,9.4,5.2,12.9
				c3.6,3.6,8,5.4,13.2,5.4c7.8,0,14-4.3,16.9-12h-8.8c-1.7,2.9-4.8,4.3-8.4,4.3C118.3,79.8,114.6,76.6,114.2,71.7"/>
			<path class="st2" d="M155,69.3c0-6,4.3-10.5,10-10.5c5.7,0,10.2,4.8,10.2,10.3c0,5.8-4.3,10.3-10.6,10.3
				C159.5,79.5,155,75,155,69.3 M154.7,54.3V40.3h-8.1v46.4h8.1v-2.9c3.3,2.6,6.8,3.7,10.9,3.7c4.5,0,8.4-1.5,11.5-4
				c4.2-3.6,6.6-8.8,6.6-14.4c0-5.1-2.1-10.2-6-13.7c-3.3-3.2-7.5-4.6-12.1-4.6C161.3,50.8,157.8,51.8,154.7,54.3"/>
			<path class="st2" d="M189.3,51.7h7.8v35h-7.8V51.7z M189.3,40.3h7.8V48h-7.8V40.3z"/>
			<path class="st2" d="M210.7,68.7c0-5.7,4.5-10,10-10c5.1,0,9.9,4.5,9.9,10.5c0,5.4-4.6,10-9.7,10
				C215.4,79.2,210.7,74.9,210.7,68.7 M231.5,86.7h7.8v-35h-7.8v4.2c-2.4-3.5-6-5.1-11.1-5.1c-5.2,0-9.4,1.7-13,5.4
				c-3.3,3.5-4.9,8-4.9,12.9c0,10.5,7.8,18.4,18.1,18.4c5.4,0,9-1.5,10.9-5.1L231.5,86.7L231.5,86.7z"/>
			<polygon class="st2" points="34.2,101.9 55.6,101.9 78.7,78.9 101.7,101.9 123.3,101.9 89.5,68.1 123.6,34 102,34 78.7,57.3 
				55.5,34 33.9,34 67.9,68.1 			"/>
		</g>
		<rect x="254.9" y="34" class="st2" width="3.9" height="67.9"/>
	</g>
</g>
</svg>
