<?xml version="1.0" encoding="UTF-8"?>
<!-- Created with Inkscape (http://www.inkscape.org/) -->
<svg width="80" height="80" version="1.1" viewBox="0 0 80 80" xmlns="http://www.w3.org/2000/svg" xmlns:cc="http://creativecommons.org/ns#" xmlns:dc="http://purl.org/dc/elements/1.1/" xmlns:rdf="http://www.w3.org/1999/02/22-rdf-syntax-ns#">
 <metadata>
  <rdf:RDF>
   <cc:Work rdf:about="">
    <dc:format>image/svg+xml</dc:format>
    <dc:type rdf:resource="http://purl.org/dc/dcmitype/StillImage"/>
    <dc:title/>
   </cc:Work>
  </rdf:RDF>
 </metadata>
 <g stroke-width=".32">
  <path d="m24.927 57.566c-0.17645-0.66-0.48432-1.992-0.68415-2.96-0.47105-2.2818-1.0423-3.1422-2.4846-3.7427-1.407-0.58577-1.6438-0.90448-1.6502-2.221-0.0037-0.75648 0.55886-1.7412 2.2839-3.9978 3.0396-3.9762 3.2789-4.5816 2.7751-7.0208-0.3376-1.6345-0.31558-2.3023 0.14993-4.5468 1.8747-9.0391 7.9435-13.638 19.311-14.635 8.9267-0.78256 16.47 1.4642 21.749 6.4777 3.648 3.4649 5.2464 7.2008 5.2464 12.262 0 4.8242-1.6161 9.2914-4.7986 13.264-2.1844 2.7266-3.0872 4.3024-3.5895 6.2651-0.50695 1.9809-1.0817 2.1939-0.97013 0.35952 0.12523-2.0586 0.93708-3.9327 3.1743-7.3277 3.3423-5.0719 4.2539-7.6705 4.2601-12.143 0.0089-6.5119-3.5342-12.025-9.6816-15.065-4.0399-1.9976-5.7628-2.3303-11.915-2.3008-4.7778 0.02287-5.8131 0.12593-8.5049 0.84661-7.396 1.9801-10.799 5.1724-12.49 11.716-0.4901 1.8969-0.58533 2.9706-0.42226 4.7609 0.11581 1.2714 0.12589 2.6489 0.0224 3.0613s-1.2721 2.2467-2.5968 4.0764c-1.3248 1.8297-2.4086 3.5877-2.4086 3.9066s0.324 0.70387 0.72 0.85532c1.3532 0.5175 1.9747 1.6398 2.8209 5.0937 0.46017 1.8783 0.77231 3.5951 0.69366 3.8151-0.26523 0.74186-0.68792 0.40727-1.0107-0.8zm3.1761-3.28c0-5.9276 0.25163-5.9646 3.8093-0.56l2.5804 3.92 0.0051-3.92c0.0032-2.3966 0.12947-3.92 0.32511-3.92 0.19818 0 0.32 1.7145 0.32 4.5035 0 3.8518-0.07003 4.4885-0.48398 4.4-0.2662-0.0569-1.634-1.8315-3.0395-3.9435l-2.5555-3.84-5.12e-4 3.92c-4.15e-4 3.2709-0.07998 3.92-0.4805 3.92-0.40381 0-0.48-0.71111-0.48-4.48zm9.6295 3.7115c-1.5157-1.6133-1.0399-4.9432 0.80661-5.6452 1.327-0.50453 2.0437-0.35566 3.0285 0.62913 1.0756 1.0756 1.2691 2.9311 0.46722 4.4817-0.80401 1.5548-3.0783 1.8372-4.3023 0.53434zm3.4105-0.76492c0.57718-0.73425 0.49842-2.9474-0.1296-3.6413-0.73973-0.81739-2.1972-0.75209-2.8123 0.12601-0.5986 0.85462-0.65329 2.8109-0.09814 3.5108 0.78773 0.99324 2.2611 0.99542 3.04 0.0045zm3.4936 0.95269c-1.5377-1.6992-1.3091-4.7617 0.42228-5.6571 1.3701-0.70852 2.1808-0.59471 3.2287 0.45325 0.79037 0.79037 0.93539 1.1895 0.93539 2.5745 0 1.3137-0.15596 1.7951-0.78546 2.4246-0.97822 0.97822-3.0023 1.0872-3.801 0.20468zm2.8899-0.53962c0.86734-0.60751 1.1867-2.0156 0.72974-3.2175-0.41118-1.0815-0.83667-1.4104-1.8332-1.4172-1.9049-0.01296-2.705 2.8392-1.2145 4.3296 0.90983 0.90983 1.3684 0.97018 2.318 0.30506zm3.2965-2.073c0-2.9099 0.05811-3.2383 0.56-3.1653 0.308 0.04479 0.8985-0.03246 1.3122-0.17167 1.3218-0.44479 1.5571 0.34604 0.26376 0.88645l-1.1482 0.47977-0.09386 2.4764c-0.06163 1.6262-0.2312 2.5219-0.49386 2.6088-0.30241 0.10006-0.4-0.65976-0.4-3.1144zm4.5238 2.5973c-1.3972-1.3972-1.0006-4.8547 0.66391-5.7873 0.69855-0.39136 1.0573-0.41459 1.84-0.11916l0.97226 0.36699v-1.4122c0-1.042 0.12584-1.4122 0.48-1.4122 0.40381 0 0.48 0.71111 0.48 4.48 0 2.464-0.1152 4.48-0.256 4.48s-0.41255-0.15655-0.60388-0.34788c-0.25051-0.25051-0.40806-0.25051-0.56289 0-0.35281 0.57086-2.3596 0.40552-3.0134-0.24828zm2.765-0.54198c0.58117-0.40707 0.7112-0.80491 0.7112-2.176 0-1.8911-0.37333-2.4459-1.6459-2.4459-1.5465 0-2.328 1.9645-1.5723 3.9522 0.25773 0.67788 0.57703 0.89978 1.627 1.1307 0.09284 0.02042 0.48884-0.18705 0.88-0.46102zm-49.849-0.80289c0-0.71557 0.14569-1.5733 0.32377-1.906 0.45007-0.84095 2.254-1.2691 5.3562-1.2712 2.4261-0.0016 2.64-0.05365 2.64-0.64178 0-0.46934 0.21333-0.64 0.8-0.64 0.58667 0 0.8 0.17066 0.8 0.64 0 0.51425 0.21333 0.64 1.0858 0.64 1.0649 0 1.4742 0.40714 1.4742 1.4662 0 0.31613-0.38836 0.45383-1.28 0.45383h-1.28v1.28c0 1.152-0.08 1.28-0.8 1.28s-0.8-0.128-0.8-1.28v-1.28h-2.741c-3.2434 0-3.979 0.29788-3.979 1.6113 0 0.79866-0.12655 0.94874-0.8 0.94874-0.72216 0-0.8-0.1266-0.8-1.301zm4.48-8.7382c0-3.0455-0.05942-3.4007-0.5688-3.4007-1.6534 0-2.7479 2.092-2.3196 4.4338 0.26151 1.4301 0.1765 1.6462-0.64757 1.6462-0.67249 0-0.93426-0.89264-0.93842-3.2-0.0055-3.0536 1.7673-4.8 4.8725-4.8 3.4039 0 5.9471 2.865 5.0882 5.7319-0.49001 1.6355-1.8838 2.6434-3.9271 2.8397l-1.5591 0.14981zm3.0326 1.0244c1.55-0.70624 1.4638-3.1093-0.14136-3.9393-0.51671-0.2672-1.0186-0.48582-1.1154-0.48582s-0.17589 1.08-0.17589 2.4 0.13722 2.4 0.30494 2.4 0.67517-0.16869 1.1277-0.37486zm33.767 0.45903c-0.264-0.10192-0.65772-0.43564-0.87494-0.74161-0.21722-0.30596-1.1532-0.73406-2.08-0.95134-0.92678-0.21727-1.8651-0.53781-2.0851-0.71231-0.60988-0.48375-0.47714-1.6368 0.24-2.0846 0.76867-0.48004 0.8212-1.1255 0.13775-1.6927-0.27624-0.22926-0.43546-0.67223-0.35383-0.9844 0.13698-0.5238 0.09071-0.52975-0.5999-0.07725-0.41158 0.26968-1.4552 0.51587-2.3193 0.5471-0.86402 0.03123-1.8065 0.25225-2.0943 0.49116-0.6471 0.53704-2.0535 0.2951-4.0903-0.70366-1.3366-0.6554-1.5708-0.68263-2.4185-0.28117-0.73384 0.34754-1.2137 0.36841-2.2001 0.09567-1.8186-0.50286-2.2054-0.81456-1.882-1.5167 0.15004-0.32576 0.27902-2.1043 0.28663-3.9523 0.01239-3.0093 0.1065-3.5487 0.90173-5.168 0.99772-2.0317 1.7824-2.7074 5.6646-4.8781 1.9978-1.117 3.4214-1.6546 5.4025-2.04l2.69-0.52332 0.67748 0.82363c0.37261 0.453 1.0015 0.99118 1.3975 1.196 0.91545 0.47341 0.90541 1.0161-0.05642 3.0493-0.42703 0.90267-0.87398 2.0686-0.99321 2.5909-0.11924 0.52231 0.37415-0.24905 1.0964-1.7141 0.72227-1.4651 1.3132-2.845 1.3132-3.0664s-0.53044-0.75071-1.1788-1.1762-1.1163-0.91761-1.04-1.0936 0.78676-0.32111 1.5788-0.32246c0.792-0.0013 1.8-0.16249 2.24-0.35807s1.88-0.4566 3.2-0.58003 2.7505-0.41356 3.1789-0.64473c0.57866-0.31224 1.0312-0.33566 1.76-0.09107 1.4672 0.49238 1.7811 0.84822 1.7811 2.0193 0 1.1963 0.44765 1.6031 4.4 3.9983 2.4361 1.4763 2.4584 1.5188 2.0136 3.8188-0.16958 0.87682-0.15298 2.0665 0.04245 3.042 0.30817 1.5382 0.27139 1.6894-0.92393 3.7961-1.2277 2.1639-1.9083 2.639-1.7933 1.252 0.04097-0.49414-0.34802-1.0229-1.28-1.7399l-1.3389-1.0301 0.92195 1.0012c0.50707 0.55068 0.96314 1.3765 1.0135 1.8352 0.05035 0.45869 0.27246 1.052 0.49358 1.3184 0.46662 0.56224 0.45023 4.7845-0.02342 6.0302-0.29726 0.78186-0.35158 0.79321-2.9542 0.61712-1.4583-0.09867-3.3352-0.39405-4.1709-0.65641-1.7256-0.54173-3.3814-0.32379-3.6788 0.48425-0.33912 0.92122-0.97922 1.1687-2.0017 0.77399zm-3.4792-8.9642c0.39804-0.50754 0.38672-0.51886-0.12082-0.12082-0.308 0.24155-0.56 0.49355-0.56 0.56 0 0.26337 0.26278 0.09386 0.68082-0.43918zm3.5869-1.2553c0.4032-0.76952 0.37212-1.0272-0.30978-2.5691-0.41686-0.9426-0.75793-1.896-0.75793-2.1186 0-0.23417-0.76637-0.56556-1.8181-0.78616-2.1326-0.44732-2.6818-0.27313-0.76564 0.24284 0.96908 0.26094 1.5767 0.70886 2.2814 1.6816 1.7428 2.4059 1.621 3.76-0.37085 4.1226l-1.0869 0.19788 1.1898 0.04212c0.98615 0.03492 1.2665-0.10426 1.6379-0.81319zm8.241-4.211c-0.49936-0.93307-1.0475-1.2383-2.636-1.468-1.2341-0.17845-1.5509-0.36871-1.8611-1.1176-0.80705-1.9484-3.0651-2.0886-4.1804-0.25949-0.90117 1.478-0.78005 1.8789 0.15286 0.50602 0.43128-0.63468 0.97128-1.2252 1.2-1.3122 0.72431-0.27567 1.701 0.29199 2.4943 1.4497 0.6017 0.87813 1.0424 1.1574 2.037 1.2908 0.69805 0.09363 1.6416 0.46078 2.0969 0.81589 1.0365 0.80849 1.0816 0.81465 0.69644 0.0949zm-49.629 4.5063c1.123e-4 -0.79364 0.52375-1.2019 5.3361-4.16l5.336-3.28h-10.715l0.10126-0.88 0.10126-0.88h13.44l0.09537 0.97422c0.0913 0.93261-0.09323 1.0917-4.32 3.7248-2.4285 1.5128-4.8474 2.9767-5.3754 3.253-0.90787 0.4751-0.66894 0.50308 4.4 0.51519l5.36 0.01281v1.6h-13.76zm0.65615-12.132c-0.92706-1.1786-1.1228-2.1971-0.69598-3.6217 0.47865-1.5976 1.6583-2.371 3.2837-2.153l1.236 0.16578v-1.5696c0-1.4609 0.0554-1.5695 0.8-1.5695h0.8v4.8c0 4.5867-0.02845 4.8-0.64 4.8-0.352 0-0.64-0.14907-0.64-0.33126 0-0.22834-0.1923-0.22834-0.61896 0-1.1912 0.63752-2.8007 0.39973-3.5248-0.52074zm3.3209-0.61086c0.79898-0.79898 0.66812-3.1851-0.20834-3.799-0.91525-0.64107-1.0784-0.62855-1.8488 0.14186-1.2424 1.2424-0.55041 4.16 0.98674 4.16 0.31215 0 0.79383-0.22629 1.0704-0.50286zm4.1824 0.63211c-0.62797-0.67759-0.79953-1.2013-0.79953-2.4406 0-1.3173 0.15447-1.7324 0.93538-2.5133 0.92332-0.92332 2.1723-1.1963 3.3703-0.73661 0.66953 0.25692 1.4543 1.7816 1.4543 2.8253 0 0.79682-0.05237 0.81589-2.24 0.81589-1.7622 0-2.24 0.1008-2.24 0.47262 0 0.78293 1.4543 1.511 2.7847 1.3941 0.9144-0.08033 1.2153 0.01208 1.2153 0.37323 0 0.3599-0.46049 0.50402-1.8405 0.57598-1.6504 0.08607-1.923 0.0069-2.64-0.76673zm3.6805-3.5441c0-0.42569-1.0698-1.3852-1.5444-1.3852-0.53359 0-1.6556 0.90107-1.6556 1.3296 0 0.14872 0.72 0.2704 1.6 0.2704s1.6-0.09666 1.6-0.2148zm3.9468 3.8372c-0.1157-0.32034-0.61906-1.6592-1.1186-2.9751-1.0732-2.8274-1.1081-3.2073-0.29429-3.2073 0.47456 0 0.77483 0.49028 1.3228 2.16 0.38991 1.188 0.78498 2.292 0.87792 2.4533 0.09295 0.16132 0.54167-0.77468 0.99716-2.08 0.68048-1.9501 0.96189-2.3922 1.578-2.4795 0.87566-0.12398 0.88612-0.17906-0.72686 3.8272-0.82238 2.0426-1.2387 2.7034-1.7523 2.7815-0.42459 0.06457-0.7514-0.11288-0.884-0.48z" fill="#a1e0f7"/>
  <path d="m25.338 58.419c-0.2007-0.24904-0.59968-1.5986-0.88663-2.9991-0.59142-2.8865-1.1257-3.8826-2.3654-4.4102-1.3507-0.5748-1.9831-1.2363-1.9831-2.0742 0-1.0606 0.38341-1.7293 2.895-5.0494 1.1983-1.584 2.2756-3.2715 2.394-3.7499 0.1184-0.47845 0.02668-1.6057-0.20382-2.5051-0.91133-3.5558 1.3918-10.232 4.6555-13.496 3.9968-3.9968 9.5952-5.7382 18.419-5.7294 3.549 0.0035 4.8753 0.14665 7.4316 0.80185 4.4723 1.1463 7.8699 3.0128 10.836 5.9526 3.9261 3.8918 5.3128 7.4767 5.0154 12.966-0.26944 4.9728-1.7311 8.5892-5.1856 12.83-1.7991 2.2086-2.6044 3.7203-3.1802 5.9702-0.51115 1.9973-1.0376 1.9503-0.89758-0.08021 0.12473-1.8087 1.2512-4.3145 3.2366-7.2 3.1829-4.626 4.1841-7.4649 4.1841-11.864 0-3.5808-0.74439-6.2493-2.4991-8.9587-2.4056-3.7145-6.6317-6.6668-11.421-7.9787-2.6081-0.7144-9.3424-0.97804-12.689-0.49674-5.6342 0.8103-10.602 3.0841-12.881 5.8956-2.4714 3.0486-3.856 7.5186-3.5322 11.403 0.11206 1.3441 0.06183 2.752-0.11417 3.2-0.17284 0.44-1.3378 2.2315-2.5888 3.9812s-2.2745 3.4452-2.2745 3.7679c0 0.32269 0.34108 0.71637 0.75798 0.87488 1.2892 0.49015 2.0108 1.7962 2.7428 4.9639 0.74624 3.2294 0.79951 4.8103 0.13429 3.9849zm2.9782 0.13386c-0.11733-0.11733-0.21333-2.1333-0.21333-4.48 0-5.6486 0.25198-5.6716 3.7914-0.34666l2.6056 3.92 0.0016-3.92c8.42e-4 -2.399 0.12559-3.92 0.32143-3.92 0.19818 0 0.32 1.7145 0.32 4.5035 0 3.8518-0.07003 4.4885-0.48398 4.4-0.26619-0.0569-1.634-1.8315-3.0395-3.9435l-2.5555-3.84-5.12e-4 3.92c-4.48e-4 3.5855-0.14606 4.3078-0.74717 3.7067zm9.4162-0.55521c-1.5303-1.6289-1.0373-4.9441 0.84137-5.6584 1.052-0.39997 2.4206-0.11591 3.1096 0.64541 0.62748 0.69336 0.97786 2.5471 0.69468 3.6753-0.51804 2.064-3.2297 2.8449-4.6456 1.3377zm3.1705-0.51145c0.80846-0.80846 0.87209-3.0531 0.1104-3.8948-0.65941-0.72864-1.9524-0.75502-2.7252-0.0556-0.68846 0.62305-0.80332 2.9131-0.1852 3.6924 0.80722 1.0178 1.9362 1.1218 2.8 0.25797zm3.9204 0.78828c-1.7675-1.238-1.4798-4.9937 0.44983-5.8729 1.2465-0.56795 2.0141-0.42024 3.0144 0.58004 0.79037 0.79037 0.93539 1.1895 0.93539 2.5745 0 1.3137-0.15596 1.7951-0.78546 2.4246-0.91574 0.91574-2.5379 1.0476-3.6142 0.29374zm2.7156-0.63748c0.87241-0.61106 1.2402-2.3823 0.70536-3.3971-0.5142-0.97572-0.90897-1.2228-1.9632-1.2288-1.822-0.01037-2.535 2.8673-1.0727 4.3296 0.91255 0.91255 1.368 0.97045 2.3306 0.29626zm3.284-2.0406c0-3.1364 0.01936-3.2224 0.72-3.1985 0.396 0.0135 1.044-0.0769 1.44-0.2009 1.1162-0.34953 0.90752 0.59809-0.22594 1.0259-0.92328 0.3485-0.9482 0.41664-1.04 2.8445-0.06182 1.6348-0.23116 2.5328-0.49406 2.6198-0.30228 0.10002-0.4-0.65502-0.4-3.0907zm4.5073 2.3988c-0.84276-0.89707-1.0278-3.2376-0.3553-4.4941 0.57778-1.0796 2.0474-1.649 3.0624-1.1866 0.77045 0.35104 0.78558 0.33033 0.78558-1.0752 0-1.0606 0.12478-1.4331 0.48-1.4331 0.40381 0 0.48 0.71111 0.48 4.48 0 2.464-0.1152 4.48-0.256 4.48s-0.41255-0.15655-0.60388-0.34788c-0.25051-0.25051-0.40806-0.25051-0.56289 0-0.40313 0.65228-2.2638 0.39249-3.0299-0.42305zm2.7815-0.36721c0.58117-0.40707 0.7112-0.80491 0.7112-2.176 0-1.8911-0.37333-2.4459-1.6459-2.4459-1.7473 0-2.6041 3.1101-1.2341 4.48 0.77021 0.77021 1.2289 0.80021 2.1688 0.14186zm-49.67 0.25001c-0.098191-0.09819-0.17853-0.70543-0.17853-1.3494 0-0.81016 0.22817-1.3852 0.74062-1.8667 0.66502-0.62476 1.0897-0.69578 4.16-0.69578h3.4194v-0.8c0-0.64 0.16-0.8 0.8-0.8s0.8 0.16 0.8 0.8c0 0.69615 0.14095 0.8 1.0858 0.8 1.0108 0 1.4742 0.41065 1.4742 1.3062 0 0.1616-0.576 0.29383-1.28 0.29383h-1.28v1.3023c0 1.1675-0.07453 1.2917-0.72 1.2-0.57834-0.08214-0.73954-0.33835-0.81932-1.3023l-0.09932-1.2h-2.9978c-3.1942 0-4.2182 0.42474-3.9056 1.6201 0.14335 0.54817-0.79935 1.0919-1.1994 0.69176zm4.5523-9.9119-0.09083-3.44-0.8 0.1047c-0.44 0.05758-1.16 0.45709-1.6 0.88778-0.69444 0.67975-0.8 1.0635-0.8 2.9085 0 1.4102-0.13394 2.1701-0.39803 2.2582-0.98561 0.32888-1.4149-3.7098-0.56836-5.3468 1.5631-3.0226 6.3224-3.3559 8.6373-0.60482 1.7812 2.1168 0.67807 5.5943-2.0115 6.3413-2.3179 0.64378-2.2678 0.70957-2.3686-3.1089zm3.198 1.0219c1.0655-0.74633 0.99273-2.754-0.13195-3.6386-0.46374-0.36477-1.1117-0.66322-1.44-0.66322-0.52941 0-0.59684 0.27118-0.59684 2.4 0 2.2841 0.03518 2.4 0.7288 2.4 0.40084 0 1.0488-0.22417 1.44-0.49814zm33.671 0.59215c-0.264-0.09651-0.78614-0.45346-1.1603-0.79323-0.37417-0.33977-1.4414-0.81854-2.3716-1.0639-2.3827-0.62854-2.8051-1.4232-1.4388-2.7068l0.78926-0.74147-0.66841-0.93869-0.6684-0.93869 1.0791-1.1358c0.66464-0.69951 0.83332-1.0087 0.43915-0.805-0.352 0.18191-0.98703 0.70177-1.4112 1.1552-0.75089 0.80279-2.4778 1.3676-3.6491 1.1935-0.31913-0.04745-0.9391 0.14886-1.3777 0.43625-0.88067 0.57704-1.9482 0.3683-4.3864-0.85768-0.96118-0.48329-1.3227-0.53405-1.6817-0.23614-0.62154 0.51583-3.5615 0.20798-4.2104-0.44087-0.42117-0.42117-0.43726-0.59459-0.09362-1.0087 0.2861-0.34473 0.39609-1.4373 0.35413-3.5176-0.07244-3.5916 0.34445-5.1822 1.8056-6.8892 1.6228-1.8959 6.7141-4.6553 9.7313-5.2743 2.6079-0.53502 3.3494-0.44317 3.6329 0.45002 0.09808 0.30903 0.53961 0.72648 0.98116 0.92767 1.171 0.53354 1.2416 1.0824 0.36289 2.8189-1.7008 3.361-1.6578 4.6128 0.17312 5.0379 1.0431 0.24218 2.0004 1.1995 2.8525 2.8527 0.72381 1.4042 0.54743 2.3937-0.46498 2.6086-0.38427 0.08156-0.98667 0.20919-1.3387 0.28362-0.352 0.07444-0.03133 0.15204 0.71262 0.17246 1.1219 0.03078 1.4447-0.10337 1.8923-0.78651 0.51312-0.78312 0.50561-0.89371-0.15262-2.2486-0.86975-1.7902-0.87746-3.1126-0.02618-4.49 0.99512-1.6101 2.1283-1.4915 3.4595 0.36223 0.85296 1.1877 1.2128 1.4404 2.0542 1.4421 0.56106 0.0013 1.3943 0.25316 1.8515 0.56 1.2944 0.86853 4.7674 5.1979 4.7787 5.9571 0.0056 0.37444 0.2216 0.96033 0.48 1.302 0.49823 0.65871 0.60206 2.6448 0.26633 5.0942l-0.20351 1.4847h-2.384c-1.3112 0-3.2796-0.23865-4.3742-0.53032-2.1833-0.58177-3.623-0.41395-3.9452 0.45986-0.3338 0.90534-0.80282 1.1287-1.6896 0.80447zm12.715-7.9653c-0.10521-0.10521-0.11127-0.3998-0.01347-0.65466 0.11041-0.28772-0.6684-1.3373-2.0545-2.7687-1.2278-1.2679-2.4709-2.7685-2.7626-3.3347-0.45767-0.8884-0.7479-1.0582-2.1197-1.2402-1.3616-0.18062-1.6798-0.36412-2.2204-1.2803-0.68014-1.1527-1.7726-1.6031-3.0881-1.2729-0.58027 0.14564-1.0117 0.6325-1.4615 1.6494-0.46604 1.0536-0.78349 1.4021-1.1767 1.292-0.29618-0.08297-1.0065-0.24504-1.5785-0.36017-0.59715-0.12019-1.04-0.40628-1.04-0.67188 0-0.25441 0.51232-1.4799 1.1385-2.7233 1.3158-2.6129 1.3123-3.3901-0.0185-4.1251-1.4051-0.77605-1.2618-1.4622 0.27981-1.3393 0.6819 0.05435 1.8008-0.12565 2.4865-0.4 0.68567-0.27435 1.9587-0.49882 2.829-0.49882s2.2435-0.22448 3.0516-0.49884c1.1766-0.39946 1.6889-0.42638 2.5714-0.13512 0.9356 0.30878 1.1313 0.54665 1.2957 1.5747 0.10651 0.66604 0.28642 1.3556 0.3998 1.5324 0.11339 0.17676 1.5389 1.1476 3.1679 2.1575 1.6289 1.0098 3.0314 1.9488 3.1165 2.0866 0.08515 0.13778-0.0063 1.0526-0.20316 2.033-0.26616 1.3253-0.26398 2.1557 0.0085 3.2379 0.35103 1.3941 0.3157 1.5495-0.83857 3.6882-1.1856 2.1969-1.3891 2.433-1.7697 2.0524zm-53.995-1.9946c0-0.81806 0.42667-1.171 4.4-3.6399 2.42-1.5037 4.868-2.9717 5.44-3.2623 0.572-0.29057 1.0402-0.56061 1.0404-0.60009 2.26e-4 -0.03948-2.4478-0.02922-5.44 0.02282l-5.4404 0.09458v-1.6292h13.161l-0.10028 1.0006c-0.09149 0.91297-0.52071 1.2621-4.9003 3.9857-2.64 1.6418-4.9918 3.0995-5.2262 3.2394-0.23441 0.13988 1.9616 0.21161 4.88 0.1594l5.3062-0.09492v1.6299h-13.12zm0.85002-11.617c-1.3516-0.78567-1.7804-3.7151-0.74732-5.1053 0.85542-1.1511 3.1041-1.6779 3.6384-0.85227 0.15612 0.24121 0.3224-0.29867 0.41889-1.36 0.1385-1.5235 0.25674-1.7737 0.88-1.8623 0.71934-0.10216 0.72-0.09782 0.72 4.72 0 4.6089-0.02831 4.8223-0.64 4.8223-0.38219 0-0.64-0.21333-0.64-0.5296 0-0.49279-0.04066-0.49279-0.5852 0-0.66113 0.59832-2.1614 0.68069-3.0448 0.16718zm2.691-0.92885c0.47889-0.25629 0.61785-0.6727 0.61406-1.84-0.0027-0.82981-0.1107-1.6632-0.24-1.8521-0.45425-0.66339-1.438-0.79598-2.2002-0.29654-0.5924 0.38815-0.75491 0.7804-0.75491 1.8221 0 2.0362 1.0998 2.9593 2.581 2.1666zm4.7512 0.8893c-0.82634-0.64781-1.2523-1.7096-1.2523-3.1216 0-3.4912 4.7956-4.4352 5.6306-1.1083 0.36956 1.4724 9e-3 1.7519-2.2606 1.7519-1.63 0-2.09 0.10403-2.09 0.47262 0 0.78293 1.4543 1.511 2.7847 1.3941 0.9144-0.08033 1.2153 0.01208 1.2153 0.37323 0 0.62694-3.2841 0.82103-4.0277 0.23804zm3.2277-4.0552c0-0.47793-0.96093-1.3029-1.5177-1.3029-0.5548 0-1.6823 0.89112-1.6823 1.3296 0 0.14872 0.72 0.2704 1.6 0.2704s1.6-0.13372 1.6-0.29714zm3.0797 1.4983c-1.3354-3.4466-1.3811-3.7612-0.54576-3.7612 0.47456 0 0.77483 0.49028 1.3228 2.16 0.38991 1.188 0.78438 2.291 0.87659 2.4511 0.09221 0.16013 0.55812-0.77587 1.0354-2.08 0.66956-1.8297 1.0234-2.3945 1.5495-2.4734 0.37499-0.05624 0.68093-0.05624 0.67988 0-0.0011 0.05624-0.56003 1.5423-1.2422 3.3023-1.6954 4.3744-2.1188 4.4206-3.6762 0.40117z" fill="#5ecaf3"/>
  <path d="m25.338 58.419c-0.2007-0.24904-0.59968-1.5986-0.88663-2.9991-0.59142-2.8865-1.1257-3.8826-2.3654-4.4102-1.3507-0.5748-1.9831-1.2363-1.9831-2.0742 0-1.0606 0.38341-1.7293 2.895-5.0494 1.1983-1.584 2.2756-3.2715 2.394-3.7499 0.1184-0.47845 0.02668-1.6057-0.20382-2.5051-0.91133-3.5558 1.3918-10.232 4.6555-13.496 3.9968-3.9968 9.5952-5.7382 18.419-5.7294 3.549 0.0035 4.8753 0.14665 7.4316 0.80185 4.4723 1.1463 7.8699 3.0128 10.836 5.9526 3.9261 3.8918 5.3128 7.4767 5.0154 12.966-0.26944 4.9728-1.7311 8.5892-5.1856 12.83-1.7991 2.2086-2.6044 3.7203-3.1802 5.9702-0.51115 1.9973-1.0376 1.9503-0.89758-0.08021 0.12473-1.8087 1.2512-4.3145 3.2366-7.2 3.1829-4.626 4.1841-7.4649 4.1841-11.864 0-3.5808-0.74439-6.2493-2.4991-8.9587-2.4056-3.7145-6.6317-6.6668-11.421-7.9787-2.6081-0.7144-9.3424-0.97804-12.689-0.49674-5.6342 0.8103-10.602 3.0841-12.881 5.8956-2.4714 3.0486-3.856 7.5186-3.5322 11.403 0.11206 1.3441 0.06183 2.752-0.11417 3.2-0.17284 0.44-1.3378 2.2315-2.5888 3.9812s-2.2745 3.4452-2.2745 3.7679c0 0.32269 0.34108 0.71637 0.75798 0.87488 1.2892 0.49015 2.0108 1.7962 2.7428 4.9639 0.74624 3.2294 0.79951 4.8103 0.13429 3.9849zm2.9782 0.13386c-0.11733-0.11733-0.21333-2.1333-0.21333-4.48 0-5.6486 0.25198-5.6716 3.7914-0.34666l2.6056 3.92 0.0016-3.92c8.42e-4 -2.399 0.12559-3.92 0.32143-3.92 0.19818 0 0.32 1.7145 0.32 4.5035 0 3.8518-0.07003 4.4885-0.48398 4.4-0.26619-0.0569-1.634-1.8315-3.0395-3.9435l-2.5555-3.84-5.12e-4 3.92c-4.48e-4 3.5855-0.14606 4.3078-0.74717 3.7067zm9.4162-0.55521c-1.5303-1.6289-1.0373-4.9441 0.84137-5.6584 1.052-0.39997 2.4206-0.11591 3.1096 0.64541 0.62748 0.69336 0.97786 2.5471 0.69468 3.6753-0.51804 2.064-3.2297 2.8449-4.6456 1.3377zm3.1705-0.51145c0.80846-0.80846 0.87209-3.0531 0.1104-3.8948-0.65941-0.72864-1.9524-0.75502-2.7252-0.0556-0.68846 0.62305-0.80332 2.9131-0.1852 3.6924 0.80722 1.0178 1.9362 1.1218 2.8 0.25797zm3.9204 0.78828c-1.7675-1.238-1.4798-4.9937 0.44983-5.8729 1.2465-0.56795 2.0141-0.42024 3.0144 0.58004 0.79037 0.79037 0.93539 1.1895 0.93539 2.5745 0 1.3137-0.15596 1.7951-0.78546 2.4246-0.91574 0.91574-2.5379 1.0476-3.6142 0.29374zm2.7156-0.63748c0.87241-0.61106 1.2402-2.3823 0.70536-3.3971-0.5142-0.97572-0.90897-1.2228-1.9632-1.2288-1.822-0.01037-2.535 2.8673-1.0727 4.3296 0.91255 0.91255 1.368 0.97045 2.3306 0.29626zm3.284-2.0406c0-3.1364 0.01936-3.2224 0.72-3.1985 0.396 0.0135 1.044-0.0769 1.44-0.2009 1.1162-0.34953 0.90752 0.59809-0.22594 1.0259-0.92328 0.3485-0.9482 0.41664-1.04 2.8445-0.06182 1.6348-0.23116 2.5328-0.49406 2.6198-0.30228 0.10002-0.4-0.65502-0.4-3.0907zm4.5073 2.3988c-0.84276-0.89707-1.0278-3.2376-0.3553-4.4941 0.57778-1.0796 2.0474-1.649 3.0624-1.1866 0.77045 0.35104 0.78558 0.33033 0.78558-1.0752 0-1.0606 0.12478-1.4331 0.48-1.4331 0.40381 0 0.48 0.71111 0.48 4.48 0 2.464-0.1152 4.48-0.256 4.48s-0.41255-0.15655-0.60388-0.34788c-0.25051-0.25051-0.40806-0.25051-0.56289 0-0.40313 0.65228-2.2638 0.39249-3.0299-0.42305zm2.7815-0.36721c0.58117-0.40707 0.7112-0.80491 0.7112-2.176 0-1.8911-0.37333-2.4459-1.6459-2.4459-1.7473 0-2.6041 3.1101-1.2341 4.48 0.77021 0.77021 1.2289 0.80021 2.1688 0.14186zm-41.209-0.78186v-1.28h-3.296c-3.5168 0-4.064 0.20567-4.064 1.5275 0 1.2231-1.0968 0.78729-1.2199-0.48475-0.073733-0.7619 0.11093-1.2429 0.70545-1.8374 0.76323-0.76323 0.99012-0.80533 4.3399-0.80533h3.5345v-0.8c0-0.49778 0.18133-0.8 0.48-0.8 0.29867 0 0.48 0.30222 0.48 0.8 0 0.72 0.128 0.8 1.28 0.8 0.704 0 1.28 0.13222 1.28 0.29383 0 0.16161 0.08741 0.52161 0.19424 0.8 0.1598 0.41642-0.06716 0.50617-1.28 0.50617h-1.4742v1.28c0 0.92444-0.13333 1.28-0.48 1.28-0.34667 0-0.48-0.35556-0.48-1.28zm-3.84-9.12c0-3.6874-0.09056-3.826-1.8908-2.8951-1.2113 0.62636-1.7603 2.0606-1.5308 3.9987 0.1395 1.1779 0.07398 1.6046-0.26646 1.7352-0.59334 0.22769-0.71451-0.01245-0.9573-1.8972-0.44416-3.4479 1.2925-5.5816 4.543-5.5816 2.2389 0 3.7711 0.66348 4.5742 1.9807 1.693 2.7768-0.06742 6.0149-3.2718 6.0181l-1.2 0.0012zm3.44 0.93011c0.81354-0.91048 0.87688-1.3557 0.35566-2.4996-0.30442-0.66813-1.9618-1.7905-2.644-1.7905-0.1054 0-0.19164 1.2396-0.19164 2.7547v2.7547l0.88-0.20674c0.484-0.11371 1.204-0.56935 1.6-1.0125zm32.414 0.21552c-0.309-0.57738-1.2534-0.99161-3.2845-1.4407-0.47892-0.10588-1.0384-0.50567-1.2432-0.88842-0.32205-0.60175-0.25836-0.78686 0.47076-1.3682 0.96077-0.76609 1.0496-1.1986 0.3632-1.7683-0.72939-0.60534-0.57899-1.3854 0.45883-2.3797 0.79461-0.76128 1.1107-0.8672 2.0579-0.68952 0.90901 0.17053 1.2433 0.07654 1.7812-0.50076 0.82822-0.88899 0.83293-1.5607 0.02211-3.15-0.352-0.68998-0.64-1.6812-0.64-2.2027 0-1.1083 1.3828-2.9173 2.2299-2.9173 0.31516 0 1.104 0.648 1.753 1.44 0.822 1.0031 1.421 1.44 1.9744 1.44 0.43696 0 1.2021 0.21078 1.7003 0.46841 1.2034 0.62232 5.1424 5.411 5.1424 6.2517 0 0.36433 0.2354 1.0217 0.52311 1.4608 0.44192 0.67445 0.47917 1.2067 0.24 3.4287l-0.28312 2.6304-2.7221-0.04448c-1.4972-0.02445-3.4412-0.25377-4.32-0.50957-1.895-0.55158-3.5334-0.24518-3.8391 0.71794-0.27251 0.85859-1.9291 0.87369-2.3851 0.02176zm-13.097-6.2739c-1.4971-0.69693-1.8573-0.75348-2.7478-0.43146-1.7989 0.65051-4.3076-0.13684-3.8488-1.2079 0.13956-0.32576 0.26854-2.2483 0.28663-4.2723 0.0303-3.3908 0.1008-3.7955 0.89703-5.1499 1.0093-1.7168 2.0639-2.5731 5.4557-4.4301 3.8529-2.1094 8.3064-2.9452 8.6519-1.6239 0.0915 0.34988 0.5263 0.773 0.96624 0.94026 1.2115 0.4606 1.274 0.82328 0.42956 2.4916-1.8464 3.648-1.816 4.9484 0.12595 5.375 1.6209 0.35601 3.7721 3.5429 3.1616 4.6837-0.15791 0.29506-0.88419 0.63661-1.617 0.76041-0.90263 0.1525-1.7642 0.62469-2.68 1.4688-0.74232 0.68424-1.6216 1.2463-1.9539 1.249-0.33232 0.0026-0.81538 0.13846-1.0735 0.3017-0.29724 0.188-0.61925 0.17232-0.8784-0.04275-0.2951-0.24491-0.62942-0.19521-1.1995 0.1783-1.0853 0.71115-1.9617 0.64712-3.9758-0.29046zm26.843-1.6228c0-0.5902-0.45557-1.2407-1.5716-2.2442-0.8644-0.77718-2.085-2.1865-2.7125-3.1318-1.1797-1.7773-1.643-2.113-2.9159-2.113-1.0611 0-1.76-0.31998-1.76-0.80579 0-0.22952-0.4548-0.80001-1.0107-1.2677-1.556-1.3093-3.3841-0.60388-4.1063 1.5844l-0.34108 1.0335-1.591-0.31457c-1.9333-0.38225-1.9664-0.62609-0.4637-3.4149 1.2549-2.3289 1.4326-3.7102 0.51493-4.0015-0.32879-0.10435-0.86097-0.48054-1.1826-0.83597-0.57967-0.64053-0.57087-0.64571 0.9978-0.58685 0.87045 0.03266 2.1586-0.17054 2.8626-0.45155 0.704-0.28101 2.072-0.51814 3.04-0.52695 0.968-0.0088 2.1735-0.23167 2.6789-0.49524 0.73908-0.38545 1.1526-0.40921 2.1132-0.1214 1.0831 0.32451 1.221 0.49502 1.4811 1.8311 0.27998 1.4383 0.36378 1.5213 3.5301 3.4964l3.2434 2.0232-0.27572 1.1869c-0.36366 1.5655-0.3626 3.6769 0.0022 4.6368 0.2379 0.62572 0.05446 1.204-0.97086 3.0608-0.69521 1.2591-1.3312 2.2893-1.4132 2.2893-0.08203 0-0.14914-0.374-0.14914-0.83112zm-54.08-1.3312c0-0.9674-0.41782-0.66171 7.1819-5.2546l4.1419-2.5031h-5.6619c-5.4485 0-5.6619-0.02412-5.6619-0.64 0-0.61919 0.21333-0.64 6.56-0.64h6.56l-4.48e-4 0.88c-3.84e-4 0.77814-0.47266 1.1804-4.08 3.4748-2.2438 1.4272-4.6916 2.9061-5.4396 3.2865-0.748 0.38042-1.36 0.7395-1.36 0.79796 0 0.05846 2.448 0.03562 5.44-0.05076l5.44-0.15705v1.6885h-13.12v-0.88233zm0.85002-11.64c-1.3516-0.78567-1.7804-3.7151-0.74732-5.1053 0.85542-1.1511 3.1041-1.6779 3.6384-0.85227 0.15612 0.24121 0.3224-0.29867 0.41889-1.36 0.1385-1.5235 0.25674-1.7737 0.88-1.8623 0.71934-0.10216 0.72-0.09782 0.72 4.72 0 4.6089-0.02831 4.8223-0.64 4.8223-0.38219 0-0.64-0.21333-0.64-0.5296 0-0.49279-0.04066-0.49279-0.5852 0-0.66113 0.59832-2.1614 0.68069-3.0448 0.16718zm2.691-0.92885c0.47889-0.25629 0.61785-0.6727 0.61406-1.84-0.0027-0.82981-0.1107-1.6632-0.24-1.8521-0.45425-0.66339-1.438-0.79598-2.2002-0.29654-0.5924 0.38815-0.75491 0.7804-0.75491 1.8221 0 2.0362 1.0998 2.9593 2.581 2.1666zm4.7512 0.8893c-0.82634-0.64781-1.2523-1.7096-1.2523-3.1216 0-3.4912 4.7956-4.4352 5.6306-1.1083 0.36956 1.4724 9e-3 1.7519-2.2606 1.7519-1.63 0-2.09 0.10403-2.09 0.47262 0 0.78293 1.4543 1.511 2.7847 1.3941 0.9144-0.08033 1.2153 0.01208 1.2153 0.37323 0 0.62694-3.2841 0.82103-4.0277 0.23804zm3.2277-4.0552c0-0.47793-0.96093-1.3029-1.5177-1.3029-0.5548 0-1.6823 0.89112-1.6823 1.3296 0 0.14872 0.72 0.2704 1.6 0.2704s1.6-0.13372 1.6-0.29714zm3.0797 1.4983c-1.3354-3.4466-1.3811-3.7612-0.54576-3.7612 0.47456 0 0.77483 0.49028 1.3228 2.16 0.38991 1.188 0.78438 2.291 0.87659 2.4511 0.09221 0.16013 0.55812-0.77587 1.0354-2.08 0.66956-1.8297 1.0234-2.3945 1.5495-2.4734 0.37499-0.05624 0.68093-0.05624 0.67988 0-0.0011 0.05624-0.56003 1.5423-1.2422 3.3023-1.6954 4.3744-2.1188 4.4206-3.6762 0.40117z" fill="#a3a3a3"/>
  <path d="m38.107 58.277c-0.82269-0.57623-1.4263-2.4883-1.1526-3.6511 0.31524-1.3392 1.3684-2.2595 2.5857-2.2595 1.5289 0 2.2141 0.45999 2.6493 1.7784 1.0175 3.0831-1.6808 5.8143-4.0824 4.1322zm2.903-0.73156c0.82054-0.90669 0.9871-2.3922 0.39631-3.5347-0.42779-0.82726-0.71133-1.0043-1.6083-1.0043-1.7186 0-2.3123 0.8913-2.1315 3.2 0.12863 1.6424 2.2867 2.5067 3.3435 1.339zm3.5581 0.37427c-1.0357-1.1175-1.0964-3.4708-0.1215-4.7101 0.5316-0.67582 0.93456-0.84316 2.0304-0.84316 1.762 0 2.4702 0.75845 2.6723 2.8621 0.13857 1.4421 0.06276 1.6784-0.82205 2.5632-1.2644 1.2644-2.6619 1.312-3.7592 0.12796zm2.9274-0.03817c1.0945-0.73079 1.414-2.9871 0.58976-4.1639-0.60442-0.86292-2.2185-0.9582-3.0767-0.18161-0.82947 0.75065-0.79689 3.0987 0.0548 3.9504 0.64506 0.64506 1.7813 0.82965 2.4321 0.3951zm7.9534 0.09944c-1.0594-1.0594-1.1075-3.5188-0.09409-4.8072 0.6226-0.79151 0.8454-0.86413 2.24-0.73013l1.5486 0.1488v-1.393c0-0.76617 0.144-1.393 0.32-1.393 0.19753 0 0.32 1.6533 0.32 4.32 0 2.6667-0.12247 4.32-0.32 4.32-0.176 0-0.32-0.15217-0.32-0.33814 0-0.18954-0.31257-0.11922-0.7112 0.16-1.023 0.71652-2.0814 0.61458-2.9833-0.28731zm2.9942-0.50701c0.95728-0.89184 1.0113-3.6386 0.08138-4.1363-1.7238-0.92253-3.221 0.02906-3.221 2.0471 0 2.4402 1.6117 3.5127 3.1397 2.0891zm-33.503-0.22753c-0.16933-0.66-0.46916-2.0091-0.66628-2.9979-0.44535-2.234-0.81675-2.7495-2.5965-3.6035-2.4348-1.1684-2.2041-2.1025 1.7986-7.2831 2.0855-2.6992 2.2876-3.349 1.7905-5.7559-0.75038-3.633 1.2941-9.8575 4.2896-13.06 2.7989-2.9923 6.2973-4.67 11.644-5.5839 3.4427-0.58851 9.1238-0.66956 12.184-0.1738 5.1456 0.83371 9.9897 3.207 13.32 6.5262 4.3028 4.2878 5.8051 10.059 4.2775 16.431-0.85188 3.5534-1.885 5.6376-4.3044 8.6835-2.2838 2.8752-3.3574 4.8821-3.6069 6.7425-0.22147 1.6511-0.72668 1.6498-0.72668-0.0019 0-1.8789 0.90204-3.944 3.3184-7.5969 3.4013-5.1419 4.6394-9.0089 4.2196-13.179-0.73695-7.3206-6.0056-13.318-13.636-15.523-2.6607-0.76882-7.3911-1.1097-11.026-0.79448-6.259 0.54267-11.08 2.2859-14.025 5.0712-2.0717 1.9593-3.1527 3.8739-4.0652 7.2002-0.57284 2.088-0.65413 2.9751-0.47244 5.1562 0.25713 3.0868 0.15833 3.3441-2.8787 7.4986-2.6294 3.5969-2.7465 4.008-1.3128 4.6071 0.61412 0.2566 1.329 0.87735 1.5887 1.3794 0.4629 0.89506 1.8104 6.1073 1.8104 7.0027 0 0.922-0.62487 0.41757-0.92321-0.74527zm3.4832-3.12c0-3.2459 0.09945-4.3185 0.4-4.3139 0.22 0.0034 1.552 1.7564 2.96 3.8957l2.56 3.8895 0.08985-3.8957c0.12469-5.4062 0.71015-5.0564 0.71015 0.42435 0 3.6205-0.07747 4.32-0.47847 4.32-0.26316 0-1.5952-1.6774-2.96-3.7276l-2.4815-3.7276-0.09016 3.7276c-0.1275 5.2716-0.70984 4.7856-0.70984-0.59239zm22.4 1.28c0-1.8133 0.12912-3.04 0.32-3.04 0.176 0 0.32 0.14906 0.32 0.33126 0 0.22835 0.1923 0.22835 0.61896 0 0.78647-0.4209 1.621-0.4267 1.621-0.01126 0 0.176-0.26568 0.32-0.5904 0.32-1.1377 0-1.6496 1.0257-1.6496 3.3052 0 1.2099-0.13864 2.1348-0.32 2.1348-0.19088 0-0.32-1.2267-0.32-3.04zm-33.92 1.44v-1.28h-3.296c-3.5168 0-4.064 0.20567-4.064 1.5275 0 1.2231-1.0968 0.78729-1.2199-0.48475-0.073733-0.7619 0.11093-1.2429 0.70545-1.8374 0.76323-0.76323 0.99012-0.80533 4.3399-0.80533h3.5345v-0.8c0-0.49778 0.18133-0.8 0.48-0.8 0.29867 0 0.48 0.30222 0.48 0.8 0 0.72 0.128 0.8 1.28 0.8 0.704 0 1.28 0.13222 1.28 0.29383 0 0.16161 0.08741 0.52161 0.19424 0.8 0.1598 0.41642-0.06716 0.50617-1.28 0.50617h-1.4742v1.28c0 0.92444-0.13333 1.28-0.48 1.28-0.34667 0-0.48-0.35556-0.48-1.28zm-3.84-9.12c0-3.6874-0.09056-3.826-1.8908-2.8951-1.2113 0.62636-1.7603 2.0606-1.5308 3.9987 0.1395 1.1779 0.07398 1.6046-0.26646 1.7352-0.59334 0.22769-0.71451-0.01245-0.9573-1.8972-0.44416-3.4479 1.2925-5.5816 4.543-5.5816 2.2389 0 3.7711 0.66348 4.5742 1.9807 1.693 2.7768-0.06742 6.0149-3.2718 6.0181l-1.2 0.0012zm3.44 0.93011c0.81354-0.91048 0.87688-1.3557 0.35566-2.4996-0.30442-0.66813-1.9618-1.7905-2.644-1.7905-0.1054 0-0.19164 1.2396-0.19164 2.7547v2.7547l0.88-0.20674c0.484-0.11371 1.204-0.56935 1.6-1.0125zm32.414 0.21552c-0.309-0.57738-1.2534-0.99161-3.2845-1.4407-0.47892-0.10588-1.0384-0.50567-1.2432-0.88842-0.32205-0.60175-0.25836-0.78686 0.47076-1.3682 0.96077-0.76609 1.0496-1.1986 0.3632-1.7683-0.72939-0.60534-0.57899-1.3854 0.45883-2.3797 0.79461-0.76128 1.1107-0.8672 2.0579-0.68952 0.90901 0.17053 1.2433 0.07654 1.7812-0.50076 0.82822-0.88899 0.83293-1.5607 0.02211-3.15-0.352-0.68998-0.64-1.6812-0.64-2.2027 0-1.1083 1.3828-2.9173 2.2299-2.9173 0.31516 0 1.104 0.648 1.753 1.44 0.822 1.0031 1.421 1.44 1.9744 1.44 0.43696 0 1.2021 0.21078 1.7003 0.46841 1.2034 0.62232 5.1424 5.411 5.1424 6.2517 0 0.36433 0.2354 1.0217 0.52311 1.4608 0.44192 0.67445 0.47917 1.2067 0.24 3.4287l-0.28312 2.6304-2.7221-0.04448c-1.4972-0.02445-3.4412-0.25377-4.32-0.50957-1.895-0.55158-3.5334-0.24518-3.8391 0.71794-0.27251 0.85859-1.9291 0.87369-2.3851 0.02176zm-13.097-6.2739c-1.4971-0.69693-1.8573-0.75348-2.7478-0.43146-1.7989 0.65051-4.3076-0.13684-3.8488-1.2079 0.13956-0.32576 0.26854-2.2483 0.28663-4.2723 0.0303-3.3908 0.1008-3.7955 0.89703-5.1499 1.0093-1.7168 2.0639-2.5731 5.4557-4.4301 3.8529-2.1094 8.3064-2.9452 8.6519-1.6239 0.0915 0.34988 0.5263 0.773 0.96624 0.94026 1.2115 0.4606 1.274 0.82328 0.42956 2.4916-1.8464 3.648-1.816 4.9484 0.12595 5.375 1.6209 0.35601 3.7721 3.5429 3.1616 4.6837-0.15791 0.29506-0.88419 0.63661-1.617 0.76041-0.90263 0.1525-1.7642 0.62469-2.68 1.4688-0.74232 0.68424-1.6216 1.2463-1.9539 1.249-0.33232 0.0026-0.81538 0.13846-1.0735 0.3017-0.29724 0.188-0.61925 0.17232-0.8784-0.04275-0.2951-0.24491-0.62942-0.19521-1.1995 0.1783-1.0853 0.71115-1.9617 0.64712-3.9758-0.29046zm26.843-1.6228c0-0.5902-0.45557-1.2407-1.5716-2.2442-0.8644-0.77718-2.085-2.1865-2.7125-3.1318-1.1797-1.7773-1.643-2.113-2.9159-2.113-1.0611 0-1.76-0.31998-1.76-0.80579 0-0.22952-0.4548-0.80001-1.0107-1.2677-1.556-1.3093-3.3841-0.60388-4.1063 1.5844l-0.34108 1.0335-1.591-0.31457c-1.9333-0.38225-1.9664-0.62609-0.4637-3.4149 1.2549-2.3289 1.4326-3.7102 0.51493-4.0015-0.32879-0.10435-0.86097-0.48054-1.1826-0.83597-0.57967-0.64053-0.57087-0.64571 0.9978-0.58685 0.87045 0.03266 2.1586-0.17054 2.8626-0.45155 0.704-0.28101 2.072-0.51814 3.04-0.52695 0.968-0.0088 2.1735-0.23167 2.6789-0.49524 0.73908-0.38545 1.1526-0.40921 2.1132-0.1214 1.0831 0.32451 1.221 0.49502 1.4811 1.8311 0.27998 1.4383 0.36378 1.5213 3.5301 3.4964l3.2434 2.0232-0.27572 1.1869c-0.36366 1.5655-0.3626 3.6769 0.0022 4.6368 0.2379 0.62572 0.05446 1.204-0.97086 3.0608-0.69521 1.2591-1.3312 2.2893-1.4132 2.2893-0.08203 0-0.14914-0.374-0.14914-0.83112zm-54.08-1.3312c0-0.9674-0.41782-0.66171 7.1819-5.2546l4.1419-2.5031h-5.6619c-5.4485 0-5.6619-0.02412-5.6619-0.64 0-0.61919 0.21333-0.64 6.56-0.64h6.56l-4.48e-4 0.88c-3.84e-4 0.77814-0.47266 1.1804-4.08 3.4748-2.2438 1.4272-4.6916 2.9061-5.4396 3.2865-0.748 0.38042-1.36 0.7395-1.36 0.79796 0 0.05846 2.448 0.03562 5.44-0.05076l5.44-0.15705v1.6885h-13.12v-0.88233zm0.46545-12.063c-0.62949-0.62949-0.78545-1.1109-0.78545-2.4246 0-1.385 0.14502-1.7842 0.93538-2.5745 1.0412-1.0412 2.0846-1.1859 3.1534-0.43724l0.7112 0.49814v-1.9381c0-1.5095 0.10617-1.9381 0.48-1.9381 0.40533 0 0.48 0.74667 0.48 4.8 0 4.0533-0.07467 4.8-0.48 4.8-0.264 0-0.48-0.22417-0.48-0.49815 0-0.45086-0.06751-0.45086-0.7112 0-1.0505 0.73582-2.3973 0.61868-3.3033-0.28731zm3.5164-0.88575c1.0699-1.5275 0.21031-4.0888-1.3723-4.0888-1.605 0-2.5203 3.3719-1.1812 4.3511 0.90145 0.65915 1.986 0.54773 2.5534-0.26232zm4.0113 0.75363c-2.0339-2.0339-0.59659-5.8024 2.2131-5.8024 0.95135 0 2.2474 1.2991 2.4741 2.48l0.19966 1.04h-2.28c-2.0385 0-2.28 0.06536-2.28 0.61714 0 1.0989 0.92714 1.6899 2.4597 1.568 1.111-0.08836 1.3788-0.01211 1.3061 0.37184-0.06305 0.33276-0.56554 0.51342-1.6154 0.5808-1.331 0.08543-1.6446-0.02284-2.4771-0.85538zm3.5268-3.2635c0-1.4064-1.6918-2.0814-2.6971-1.0761-0.96827 0.96827-0.62075 1.4171 1.0971 1.4171 0.91913 0 1.6-0.14513 1.6-0.34104zm3.2736 1.541c-0.5345-1.452-1.0731-2.892-1.197-3.2-0.1701-0.42311-0.06669-0.56 0.42302-0.56 0.51715 0 0.79077 0.43656 1.3538 2.16 0.38813 1.188 0.80342 2.2683 0.92286 2.4008 0.11944 0.13242 0.54475-0.77637 0.94514-2.0195 0.65526-2.0345 1.3437-2.9427 1.8483-2.4381 0.10023 0.10023-0.36228 1.558-1.0278 3.2395-1.5588 3.9384-1.9537 3.9888-3.2684 0.41729z" fill="#01adee"/>
  <path d="m38.107 58.277c-0.82269-0.57623-1.4263-2.4883-1.1526-3.6511 0.31524-1.3392 1.3684-2.2595 2.5857-2.2595 1.5289 0 2.2141 0.45999 2.6493 1.7784 1.0175 3.0831-1.6808 5.8143-4.0824 4.1322zm2.903-0.73156c0.82054-0.90669 0.9871-2.3922 0.39631-3.5347-0.42779-0.82726-0.71133-1.0043-1.6083-1.0043-1.7186 0-2.3123 0.8913-2.1315 3.2 0.12863 1.6424 2.2867 2.5067 3.3435 1.339zm3.5581 0.37427c-1.0357-1.1175-1.0964-3.4708-0.1215-4.7101 0.5316-0.67582 0.93456-0.84316 2.0304-0.84316 1.762 0 2.4702 0.75845 2.6723 2.8621 0.13857 1.4421 0.06276 1.6784-0.82205 2.5632-1.2644 1.2644-2.6619 1.312-3.7592 0.12796zm2.9274-0.03817c1.0945-0.73079 1.414-2.9871 0.58976-4.1639-0.60442-0.86292-2.2185-0.9582-3.0767-0.18161-0.82947 0.75065-0.79689 3.0987 0.0548 3.9504 0.64506 0.64506 1.7813 0.82965 2.4321 0.3951zm7.9534 0.09944c-1.0594-1.0594-1.1075-3.5188-0.09409-4.8072 0.6226-0.79151 0.8454-0.86413 2.24-0.73013l1.5486 0.1488v-1.393c0-0.76617 0.144-1.393 0.32-1.393 0.19753 0 0.32 1.6533 0.32 4.32 0 2.6667-0.12247 4.32-0.32 4.32-0.176 0-0.32-0.15217-0.32-0.33814 0-0.18954-0.31257-0.11922-0.7112 0.16-1.023 0.71652-2.0814 0.61458-2.9833-0.28731zm2.9942-0.50701c0.95728-0.89184 1.0113-3.6386 0.08138-4.1363-1.7238-0.92253-3.221 0.02906-3.221 2.0471 0 2.4402 1.6117 3.5127 3.1397 2.0891zm-33.503-0.22753c-0.16933-0.66-0.46916-2.0091-0.66628-2.9979-0.44535-2.234-0.81675-2.7495-2.5965-3.6035-2.4348-1.1684-2.2041-2.1025 1.7986-7.2831 2.0855-2.6992 2.2876-3.349 1.7905-5.7559-0.75038-3.633 1.2941-9.8575 4.2896-13.06 2.7989-2.9923 6.2973-4.67 11.644-5.5839 3.4427-0.58851 9.1238-0.66956 12.184-0.1738 5.1456 0.83371 9.9897 3.207 13.32 6.5262 4.3028 4.2878 5.8051 10.059 4.2775 16.431-0.85188 3.5534-1.885 5.6376-4.3044 8.6835-2.2838 2.8752-3.3574 4.8821-3.6069 6.7425-0.22147 1.6511-0.72668 1.6498-0.72668-0.0019 0-1.8789 0.90204-3.944 3.3184-7.5969 3.4013-5.1419 4.6394-9.0089 4.2196-13.179-0.73695-7.3206-6.0056-13.318-13.636-15.523-2.6607-0.76882-7.3911-1.1097-11.026-0.79448-6.259 0.54267-11.08 2.2859-14.025 5.0712-2.0717 1.9593-3.1527 3.8739-4.0652 7.2002-0.57284 2.088-0.65413 2.9751-0.47244 5.1562 0.25713 3.0868 0.15833 3.3441-2.8787 7.4986-2.6294 3.5969-2.7465 4.008-1.3128 4.6071 0.61412 0.2566 1.329 0.87735 1.5887 1.3794 0.4629 0.89506 1.8104 6.1073 1.8104 7.0027 0 0.922-0.62487 0.41757-0.92321-0.74527zm3.4832-3.12c0-3.2459 0.09945-4.3185 0.4-4.3139 0.22 0.0034 1.552 1.7564 2.96 3.8957l2.56 3.8895 0.08985-3.8957c0.12469-5.4062 0.71015-5.0564 0.71015 0.42435 0 3.6205-0.07747 4.32-0.47847 4.32-0.26316 0-1.5952-1.6774-2.96-3.7276l-2.4815-3.7276-0.09016 3.7276c-0.1275 5.2716-0.70984 4.7856-0.70984-0.59239zm22.4 1.28c0-1.8133 0.12912-3.04 0.32-3.04 0.176 0 0.32 0.14906 0.32 0.33126 0 0.22835 0.1923 0.22835 0.61896 0 0.78647-0.4209 1.621-0.4267 1.621-0.01126 0 0.176-0.26568 0.32-0.5904 0.32-1.1377 0-1.6496 1.0257-1.6496 3.3052 0 1.2099-0.13864 2.1348-0.32 2.1348-0.19088 0-0.32-1.2267-0.32-3.04zm-41.775-27.825c-0.62949-0.62949-0.78545-1.1109-0.78545-2.4246 0-1.385 0.14502-1.7842 0.93538-2.5745 1.0412-1.0412 2.0846-1.1859 3.1534-0.43724l0.7112 0.49814v-1.9381c0-1.5095 0.10617-1.9381 0.48-1.9381 0.40533 0 0.48 0.74667 0.48 4.8 0 4.0533-0.07467 4.8-0.48 4.8-0.264 0-0.48-0.22417-0.48-0.49815 0-0.45086-0.06751-0.45086-0.7112 0-1.0505 0.73582-2.3973 0.61868-3.3033-0.28731zm3.5164-0.88575c1.0699-1.5275 0.21031-4.0888-1.3723-4.0888-1.605 0-2.5203 3.3719-1.1812 4.3511 0.90145 0.65915 1.986 0.54773 2.5534-0.26232zm4.0113 0.75363c-2.0339-2.0339-0.59659-5.8024 2.2131-5.8024 0.95135 0 2.2474 1.2991 2.4741 2.48l0.19966 1.04h-2.28c-2.0385 0-2.28 0.06536-2.28 0.61714 0 1.0989 0.92714 1.6899 2.4597 1.568 1.111-0.08836 1.3788-0.01211 1.3061 0.37184-0.06305 0.33276-0.56554 0.51342-1.6154 0.5808-1.331 0.08543-1.6446-0.02284-2.4771-0.85538zm3.5268-3.2635c0-1.4064-1.6918-2.0814-2.6971-1.0761-0.96827 0.96827-0.62075 1.4171 1.0971 1.4171 0.91913 0 1.6-0.14513 1.6-0.34104zm3.2736 1.541c-0.5345-1.452-1.0731-2.892-1.197-3.2-0.1701-0.42311-0.06669-0.56 0.42302-0.56 0.51715 0 0.79077 0.43656 1.3538 2.16 0.38813 1.188 0.80342 2.2683 0.92286 2.4008 0.11944 0.13242 0.54475-0.77637 0.94514-2.0195 0.65526-2.0345 1.3437-2.9427 1.8483-2.4381 0.10023 0.10023-0.36228 1.558-1.0278 3.2395-1.5588 3.9384-1.9537 3.9888-3.2684 0.41729z" fill="#5d5d5d"/>
  <path d="m38.444 58.444c-0.95855-0.38621-1.3809-1.2957-1.3809-2.9736 0-1.9742 0.92009-3.1042 2.5274-3.1042 1.6673 0 2.6424 1.0732 2.6706 2.9393 0.04061 2.686-1.5974 4.0328-3.8172 3.1385zm2.3312-0.56267c1.2845-0.85767 1.4327-3.2794 0.2718-4.4403-0.88423-0.88423-2.0735-0.85368-3.0239 0.07768-0.70318 0.68907-0.6237 3.1015 0.1296 3.9339 0.60254 0.6658 1.94 0.88443 2.6225 0.4287zm3.904-0.08979c-0.893-0.893-0.96144-1.1125-0.81663-2.6197 0.1817-1.891 1.0088-2.8057 2.537-2.8057 1.3889 0 2.0856 0.49367 2.5096 1.7784 0.50841 1.5405 0.15511 3.1684-0.86113 3.9677-1.1704 0.92064-2.2281 0.81991-3.3689-0.32082zm3.2639-0.30531c0.94341-0.94341 0.86889-3.0002-0.14546-4.0145-0.432-0.432-0.94547-0.78546-1.141-0.78546-0.49318 0-1.7048 0.66282-1.9886 1.0879-0.44863 0.67188-0.26022 3.1648 0.2847 3.7669 0.69875 0.77211 2.1908 0.74477 2.9904-0.0548zm7.6354 0.66827c-0.6416-0.51954-0.75545-0.90027-0.75545-2.5264 0-1.4338 0.15311-2.0839 0.6096-2.5883 0.65984-0.72912 2.0758-0.88591 3.0914-0.34234 0.57386 0.30712 0.61896 0.21384 0.61896-1.28 0-0.88619 0.144-1.6113 0.32-1.6113 0.19753 0 0.32 1.6533 0.32 4.32 0 2.6667-0.12247 4.32-0.32 4.32-0.176 0-0.32-0.13546-0.32-0.30102 0-0.16556-0.396-0.09445-0.88 0.15803-1.1783 0.61464-1.7832 0.58112-2.6846-0.14873zm2.8533-0.52641c0.58341-0.40864 0.7112-0.80408 0.7112-2.2008 0-1.8126-0.2711-2.2359-1.6541-2.583-1.3016-0.32668-2.1859 0.732-2.1859 2.6168 0 2.3739 1.4247 3.3606 3.1288 2.1671zm-33.684-1.6619c-0.77396-3.6983-1.207-4.4809-2.8749-5.1958-2.5488-1.0926-2.3153-2.2683 1.3979-7.0371l2.1124-2.7129-0.08737-3.5454c-0.10302-4.1803 0.69496-7.5346 2.5112-10.556 3.5227-5.8596 11.515-8.8921 22.056-8.3687 6.0766 0.30166 11.319 2.1887 15.536 5.5927 7.573 6.1121 8.154 17.698 1.3109 26.143-2.085 2.5731-3.7272 5.6188-3.7272 6.9122 0 0.4895-0.144 0.979-0.32 1.0878-0.55985 0.34601-0.35165-1.9714 0.3442-3.8312 0.36531-0.97637 1.5307-3.0817 2.5898-4.6784 3.9677-5.982 5.1213-10.34 4.075-15.395-0.48183-2.3276-2.2386-5.8712-3.8078-7.6806-1.8097-2.0868-5.5386-4.4939-8.5282-5.5053-8.6375-2.9221-21.247-0.98781-26.295 4.0335-3.1416 3.1252-4.7499 7.496-4.4137 11.995 0.10941 1.4642 0.05767 2.9816-0.11736 3.4419-0.17217 0.45283-1.3963 2.3525-2.7202 4.2215-1.324 1.869-2.4072 3.5932-2.4072 3.8316s0.55539 0.71676 1.2342 1.0631c1.4049 0.71675 1.6661 1.2456 2.5922 5.2486 0.74441 3.2178 0.76491 3.4147 0.35543 3.4147-0.164 0-0.53172-1.116-0.81718-2.48zm3.6753-1.84c0-3.2459 0.09945-4.3185 0.4-4.3139 0.22 0.0034 1.552 1.7564 2.96 3.8957l2.56 3.8895 0.08985-3.8957c0.125-5.4199 0.71015-5.0509 0.71015 0.44781 0 3.709-0.0707 4.3284-0.48398 4.24-0.26619-0.0569-1.634-1.8315-3.0395-3.9435l-2.5555-3.84-5.12e-4 3.92c-3.02e-4 2.3997-0.12461 3.92-0.3205 3.92-0.19753 0-0.32-1.6533-0.32-4.32zm22.4 1.28c0-2.6984 0.30686-3.8031 0.73333-2.64 0.11733 0.32 0.23147 0.32 0.57067 0 0.2332-0.22 0.7045-0.4 1.0473-0.4 0.48242 0 0.37753 0.16533-0.464 0.73136-1.0487 0.70538-1.0907 0.81336-1.1813 3.04-0.13908 3.4152-0.70598 2.828-0.70598-0.73136zm-41.664-28.015c-0.88481-0.88481-0.96061-1.1212-0.82205-2.5632 0.24245-2.5233 1.867-3.6974 3.7891-2.7385l0.93687 0.46738v-1.8955c0-1.4715 0.10736-1.8955 0.48-1.8955 0.4046 0 0.48 0.72889 0.48 4.64s-0.0754 4.64-0.48 4.64c-0.264 0-0.48-0.15217-0.48-0.33815 0-0.18953-0.31257-0.11921-0.7112 0.16-1.0793 0.75598-2.1147 0.60144-3.1927-0.47654zm3.3187-0.51491c0.75341-0.68183 0.78654-2.8775 0.0556-3.6852-0.90471-0.99969-2.2463-0.72898-2.9425 0.59376-1.228 2.333 1.0406 4.7623 2.8869 3.0914zm4.7515 1.0786c-2.722-1.3773-1.5859-6.117 1.4662-6.117 1.3922 0 2.3675 0.9901 2.3675 2.4034v0.92455h-2.2616c-2.1974 0-2.2553 0.02043-2.0408 0.72 0.38285 1.2488 0.81487 1.52 2.4216 1.52 1.5306 0 2.056 0.38149 1.0546 0.76576-0.8143 0.31248-2.1521 0.21604-3.0075-0.21679zm2.8737-4.005c0-0.82146-0.63172-1.344-1.6248-1.344-0.87372 0-1.3197 0.362-1.6755 1.36-0.17446 0.4894 0.02098 0.56 1.5503 0.56 1.4718 0 1.75-0.09155 1.75-0.576zm3.9073 3.216c-0.1734-0.484-0.68504-1.852-1.137-3.04-0.73319-1.9274-0.76292-2.1599-0.27602-2.1592 0.39448 6.08e-4 0.80404 0.73205 1.4782 2.64l0.93256 2.6392 0.85433-2.56c0.56066-1.68 1.0376-2.5956 1.3874-2.6635 0.70146-0.13614 0.71138-0.18636-0.62047 3.1413-1.2466 3.1147-2.0111 3.6991-2.6191 2.0022z" fill="#303030"/>
  <path d="m38.777 58.449c-1.0658-0.43052-1.7142-1.6141-1.7142-3.1287 0-1.7242 1.0659-2.9543 2.56-2.9543 1.5803 0 2.56 1.219 2.56 3.1855 0 1.5586-0.72639 2.8945-1.5738 2.8945-0.16161 0-0.48561 0.063-0.72 0.13999-0.2344 0.07699-0.73476 0.01533-1.1119-0.13702zm2.4458-0.96297c0.94341-0.94341 0.86889-3.0002-0.14546-4.0145-0.432-0.432-1.0865-0.78546-1.4545-0.78546-1.0154 0-2.24 1.403-2.24 2.5665 0 1.0439 0.4909 2.23 1.0879 2.6286 0.67202 0.44872 2.1155 0.24148 2.7521-0.3951zm4.1663 0.86898c-1.514-0.76607-2.0417-2.9387-1.1381-4.6861 1.1721-2.2665 4.229-1.5373 4.7954 1.144 0.29063 1.3758-0.51918 3.2285-1.589 3.6352-1.0468 0.39799-1.1028 0.39546-2.0683-0.09306zm2.6955-0.94018c0.72546-1.0357 0.6469-3.3-0.14186-4.0888-1.21-1.21-2.9306-0.66578-3.5175 1.1125-0.64732 1.9614 0.33987 3.6875 2.109 3.6875 0.72462 0 1.2074-0.22145 1.5504-0.7112zm7.955 0.96818c-0.38671-0.18684-0.85471-0.77458-1.04-1.3061-1.0305-2.956 0.73915-5.4113 3.224-4.4734l0.88801 0.33518 0.11636-1.6463c0.064-0.90548 0.13163 0.36967 0.15029 2.8337 0.01866 2.464-0.03508 4.3109-0.11943 4.1041-0.11422-0.27994-0.43188-0.25952-1.2445 0.08-0.6001 0.25074-1.1317 0.44614-1.1814 0.43423-0.04965-0.0119-0.40668-0.17453-0.7934-0.36137zm2.5915-0.86199c0.40533-0.44788 0.5221-1.0477 0.4496-2.3095-0.08492-1.478-0.21486-1.7697-0.97794-2.195-0.78806-0.43926-0.97084-0.43969-1.7495-0.0041-1.1812 0.66076-1.5853 2.3801-0.92868 3.9516 0.42309 1.0126 0.62526 1.162 1.5723 1.162 0.65939 0 1.302-0.23791 1.6343-0.60502zm-34.007-2.2301c-0.72832-3.262-1.3022-4.2028-2.8499-4.6724-0.98547-0.29901-1.779-1.5696-1.5099-2.4176 0.11808-0.37205 1.318-2.1345 2.6665-3.9166l2.4518-3.2402 0.01941-4.179c0.01689-3.6361 0.12511-4.4746 0.83296-6.4539 2.1826-6.103 6.4978-9.5846 13.868-11.188 3.953-0.86025 12.289-0.7867 15.68 0.13835 8.5846 2.3417 14.508 8.2151 15.549 15.417 0.67546 4.6744-0.91097 10.546-3.8874 14.388-2.3284 3.0055-3.6791 5.121-4.0863 6.4-0.19612 0.616-0.49342 1.552-0.66068 2.08l-0.30412 0.96-0.02525-0.98192c-0.04601-1.7884 0.91813-4.2028 2.8581-7.1571 3.6522-5.562 4.7967-8.5829 4.7967-12.661 0-8.0726-5.4812-14.675-14.254-17.17-2.1255-0.60446-3.3377-0.72507-7.3456-0.73084-9.0482-0.01302-15.528 2.3415-18.845 6.8478-2.2927 3.1144-3.6215 7.9965-3.0125 11.068 0.41236 2.0803 0.0436 2.9805-2.9233 7.136-1.2424 1.7402-2.2589 3.3952-2.2589 3.678s0.39634 0.719 0.88076 0.96949c1.5225 0.78733 1.9398 1.5548 2.7809 5.1143 0.93589 3.9608 0.90126 3.7267 0.55126 3.7267-0.14691 0-0.5841-1.4198-0.97155-3.1551zm3.8678-1.0849c-0.04258-2.708 0.05144-4.4 0.24449-4.4 0.35614 0 5.571 7.662 5.359 7.8739-0.0757 0.0757-1.1867-1.449-2.4689-3.3882s-2.4512-3.5258-2.5977-3.5258-0.31173 1.764-0.36709 3.92l-0.10066 3.92zm5.8166 3.7338c0.10683-0.27839 0.19424-2.2224 0.19424-4.32 0-2.3292 0.12457-3.8138 0.32-3.8138 0.19753 0 0.32 1.6533 0.32 4.32 0 3.7545-0.06732 4.32-0.51424 4.32-0.33745 0-0.44746-0.17402-0.32-0.50617zm16.93-2.5338c-0.01187-1.76 0.04443-2.9473 0.12507-2.6385 0.13289 0.50888 0.21107 0.51637 0.83408 0.08 0.3781-0.26483 0.9074-0.48128 1.1762-0.48101 0.26884 2.75e-4 -0.0152 0.25228-0.6312 0.56-1.1114 0.55522-1.1214 0.57912-1.3013 3.1195l-0.18132 2.56-0.02157-3.2zm-42.04-27.975c-1.0693-1.0693-1.2471-2.6536-0.46722-4.1617 0.67321-1.3018 2.3003-1.7276 3.7129-0.97163 0.5773 0.30896 0.61896 0.21203 0.61896-1.44 0-1.3611 0.11114-1.7713 0.48-1.7713 0.40381 0 0.48 0.71111 0.48 4.48 0 4.1205-0.24252 5.3374-0.78298 3.929-0.13363-0.34823-0.29345-0.42475-0.43424-0.20791-0.30753 0.47364-1.5117 1.0789-2.1464 1.0789-0.28911 0-0.94658-0.42092-1.461-0.93538zm3.4646-0.61049c0.57118-0.7089 0.50481-3.1036-0.10286-3.7113-1.2779-1.2779-3.3371-0.14901-3.3371 1.8294 0 2.2942 2.157 3.4742 3.44 1.8819zm4.6747 1.0834c-2.7342-1.1898-1.7628-5.9375 1.2149-5.9375 1.512 0 2.5104 0.89089 2.5104 2.24v0.96h-2.24c-2.4626 0-2.7363 0.27639-1.6281 1.6445 0.49123 0.60649 0.90137 0.7494 2.08 0.72477 1.5531-0.03246 1.9551 0.30552 0.74811 0.62899-1.0442 0.27984-1.5573 0.23002-2.6853-0.26078zm2.8526-4.0381c-0.26638-1.0186-1.4994-1.7025-2.2985-1.2748-0.58728 0.3143-1.3088 1.2815-1.3088 1.7544 0 0.09957 0.85052 0.18104 1.89 0.18104 1.7522 0 1.8774-0.0482 1.7173-0.66061zm3.0593 1.1406c-1.0157-2.6461-1.0951-3.04-0.61307-3.04 0.40932 0 0.75176 0.63124 1.3127 2.4198 0.41738 1.3309 0.84477 2.4728 0.94974 2.5377 0.10498 0.06488 0.59662-1.024 1.0925-2.4198 0.58234-1.639 1.0714-2.5377 1.3808-2.5377 0.26354 0 0.40617 0.18 0.31696 0.4-0.0892 0.22-0.63114 1.588-1.2043 3.04-0.70107 1.776-1.2101 2.64-1.5553 2.64-0.35303 0-0.87737-0.94876-1.6801-3.04z" fill="#020202"/>
 </g>
</svg>
